<?xml version="1.0" encoding="UTF-8"?><svg id="a" xmlns="http://www.w3.org/2000/svg" viewBox="0 0 16 16"><circle cx="8" cy="8" r="8" fill="#151e1d"/><path d="M8.1,6.09c.63-.64,1.4-.78,2.24-.64,.9,.16,1.51,.82,1.54,1.73,.03,.96,.02,1.92,0,2.88,0,.37-.17,.51-.53,.53-.13,0-.26,0-.39,0-.36,0-.5-.14-.5-.51,0-.83-.02-1.66,0-2.5,.02-.73-.55-.97-1.11-.85-.39,.09-.61,.39-.61,.83,0,.75,0,1.51,0,2.26,0,.1,0,.21,0,.31-.03,.31-.15,.43-.46,.44-.16,0-.31,0-.47,0-.36,0-.51-.14-.51-.5,0-.74,0-1.47,0-2.21,0-.1,0-.21,0-.31-.02-.54-.32-.85-.84-.85-.52,0-.85,.29-.87,.83-.02,.8-.01,1.59-.02,2.39,0,.14,0,.31-.07,.43-.19,.36-.55,.19-.84,.22-.21,.02-.38-.06-.46-.26-.04-.11-.06-.24-.06-.35,0-.82-.01-1.65,0-2.47,.03-1.17,.89-2.03,2.06-2.1,.74-.04,1.39,.14,1.93,.68Z" fill="#83d4cd"/></svg>